<?xml version="1.0" encoding="UTF-8"?>
<svg id="Warstwa_1" data-name="Warstwa 1" xmlns="http://www.w3.org/2000/svg" viewBox="0 0 1067.86 1261.04">
  <defs>
    <style>
      .cls-1 {
        fill: #fbfbfa;
      }
    </style>
  </defs>
  <path class="cls-1" d="M432.39,617.95c0,.55.29,1.07.79,1.31,3.11,1.44,14.14.95,16.7.78,22.93-1.59,55.09-12.07,75.73-22.27,83.42-41.25,126.25-132.81,96.14-222.9-.12-.35-.1-.72.05-1.06l.27-.61c.19-.42.57-.73,1.02-.83,34.96-7.83,69.93-16.67,105.82-19.31,40.03-2.95,83.2,1.81,120.17,17.81,5.22,2.26,15.36,5.6,16.89,11.11,2.11,7.59,3.04,24.23,3.42,32.58,9.19,201.67-138.28,305.11-321.38,328.6-.01,0-.02,0-.03,0-1.62.2-1.77,2.5-.18,2.88,37.17,8.87,72.38,24.71,105.27,43.82,85.25,49.54,148.44,127.05,208.74,203.26l205.75,265.55c.75.97.06,2.37-1.16,2.37h-250.06c-.58,0-1.1-.34-1.34-.86-20.57-45.44-41.52-91.02-65.44-134.81-60.57-110.9-138.89-200.31-261.65-242.35-17.11-5.86-35.9-11.16-53.92-12.84-.86-.08-1.6.61-1.6,1.47v117.84c0,1.43-1.83,2.02-2.66.86l-175.74-244.03c-.37-.51-.37-1.2,0-1.72l175.74-243.86c.83-1.16,2.66-.57,2.66.86v116.35Z"/>
  <path class="cls-1" d="M696.97,54.64c-3.67,5.91-10.69,10.58-18.03,10.43-2.76-.06-8.03-2.41-10.73-1.89-.48.09-.88.43-1.07.88l-10.2,24.64c-.31.74.03,1.58.76,1.91l70.77,31.28c.31.14.65.16.97.08l1.47-.39c.4-.11.73-.37.92-.74,1.93-3.71,9.65-22.11,9.64-23.32-.01-3.9-3.42-4.11-5.61-6.45-7.14-7.64-7.76-12.81-4.66-22.71,4.42-14.1,11.38-26.36,28.24-22.87,3.54.73,33.62,15.19,36.46,17.54,15.29,12.67-1.08,48.82-19.9,46.98-2.06-.2-7.06-2.63-9.55-2.73-.59-.02-1.13.33-1.37.87l-11.09,24.56c-.33.74,0,1.61.73,1.94l71.88,32.76c.73.33,1.6.02,1.94-.71l11.62-24.68c.15-.33.18-.7.08-1.05l-.1-.32c-.12-.39-.4-.71-.76-.89-16.97-8.48-12.95-25.31-5.16-39.38,4.93-8.92,12.03-13.06,22.44-11.09,4.34.82,26.92,11.53,31.78,14.22,15.02,8.34,13.84,19.46,7.42,33.51-6.75,14.77-15.52,20.22-31.09,14.55-.75-.27-1.58.08-1.88.82l-10.07,24.8c-.29.71.01,1.52.69,1.87,17.36,8.83,35.7,16.7,49.89,30.49,29.66,28.81,46.33,91.13,29.46,129.48-14.36,32.63-39.95,8.73-61.79-1.14-66.97-30.25-125.91-27.06-196.88-15.54-16.95,2.75-51.84,12.6-67.07,9.48-14.95-3.06-29.31-33.35-38.76-45.24-38.05-47.89-107.5-82.19-168.48-85.52-112.65-6.15-212.39,54.8-263.01,153.97l-16.66,36.65c-.7,1.53-3,.88-2.79-.79,8.52-69.58,36.64-140.05,78.57-195.75,91.22-121.19,233.34-151.41,378.79-138.96,19.72,1.69,38.05,15.34,56.76,21.41.7.23,1.45-.11,1.77-.77l11.56-23.85c.35-.72.05-1.57-.65-1.94-16.25-8.77-14.12-21.52-6.99-36.65,3.44-7.3,7-13.03,15.76-14.24,9.49-1.31,25.78,7.59,34.77,12.05,9.45,4.68,17.93,8.84,17.55,21.27-.14,4.46-5.79,17.09-8.33,21.19Z"/>
  <path class="cls-1" d="M71.76,910.68c25.68,44.8,62.62,84.76,105.31,114.17,125.32,86.34,302.03,86.24,422.36-9.3,1.03-.69,2.09-.69,3.24-.37,1.77.5,23.27,22.59,26.23,25.85,28.49,31.29,52.78,68.42,72.76,105.28,5.98,11.04,13.9,24.99,18.57,36.38.57,1.38,1.95,3.77,1.91,5.46-.01.49-.29.94-.71,1.2-42.3,25.91-89.54,44.37-138.04,55.21-237.58,53.1-471.38-60.86-554.03-291.99-39.77-111.22-41.86-261.79,10.52-369.52,1.64-3.37,7.3-9.77,6.07-2.96-1.43,7.93-5.34,17.49-7.28,25.75-24.06,102.44-20.12,212.05,33.08,304.86Z"/>
</svg>