<?xml version="1.0" encoding="utf-8"?>
<svg xmlns="http://www.w3.org/2000/svg" xmlns:xlink="http://www.w3.org/1999/xlink" width="600" height="600" viewBox="200 150 700 700">
  <path transform="scale(1.14405 1.14405)" d="M493.216 194.789C533.115 192.63 586.283 197.865 625.293 205.971C681.585 217.667 741.723 241.76 774.29 291.817C800.301 331.798 800.857 385.151 790.763 430.161C760.772 563.893 637.559 747.888 523.753 821.911C521.696 823.517 514.206 827.38 511.557 828.755C497.604 821.993 477.944 807.336 465.678 797.574C429.742 768.975 400.289 735.654 372.183 699.071C306.507 612.311 243.944 513.205 228.783 403.97C207.397 249.887 353.953 201.616 477.561 195.804C482.011 195.594 487.849 195.39 492.299 194.895L493.216 194.789ZM316.488 558.328C331.669 548.909 346.264 537.543 361.234 528.08C405.979 496.61 452.235 466.829 497.194 435.638C502.376 432.043 508.273 428.265 513.209 424.417L513.176 423.836C512.863 417.526 513.725 411.08 512.624 404.904C510.988 395.731 507.841 386.266 504.598 377.559C489.941 338.209 462.779 302.887 431.859 274.845C419.779 263.888 400.736 249.198 386.414 241.03C377.394 243.991 368.168 248.079 359.475 251.918C324.373 267.421 295.772 288.331 277.761 323.206C253.671 369.851 262.716 423.6 278.381 471.339C286.077 494.792 296.014 517.998 306.86 540.206C309.018 544.623 313.805 554.353 316.488 558.328ZM330.762 584.615L343.346 604.915C345.458 608.473 347.942 612.444 349.879 616.054C354.178 612.385 362.54 607.246 367.614 603.864L398.641 583.027L467.913 535.775C482.768 525.686 498.436 515.58 512.974 505.229C513.193 497.921 514.472 466.844 512.934 461.861L512.522 461.516C477.854 483.473 441.414 509.526 407.292 532.921L353.979 569.282C346.517 574.312 337.928 579.536 330.762 584.615ZM367.05 640.511C370.976 646.292 374.707 651.363 378.923 656.945C381.537 660.456 385.305 665.822 388.137 668.972L472.138 612.539L498.486 594.808C502.419 592.173 509.303 587.323 513.207 585.172C513.121 579.932 513.404 544.054 512.444 542.516C489.778 556.126 463.219 574.728 441.194 589.847L367.05 640.511ZM512.099 701.97C492.321 714.184 471.327 728.77 451.918 741.734C461.209 750.429 468.768 757.06 478.709 764.969C491.304 774.52 500.325 780.189 513.024 788.885C513.033 780.013 513.833 704.432 512.099 701.97ZM406.949 692.538C410.742 697.441 416.147 704.409 420.359 708.855C423.823 712.787 427.032 716.263 430.654 720.037C437.895 715.709 444.978 710.363 452.076 705.793C472.322 692.757 493.056 677.152 513.487 664.637C513.685 656.372 514.622 629.49 512.813 622.433L512.269 621.943C489.534 636.539 466.559 652.56 444.033 667.631L419.375 684.094C415.71 686.535 410.154 689.899 406.949 692.538ZM512.529 225.123C510.264 225.189 506.829 225.369 504.687 225.247C484.872 225.706 464.894 226.854 445.253 229.49C440.065 230.187 432.767 230.853 427.823 232.129C447.499 245.49 463.391 260.298 479.904 277.191C491.488 289.979 501.328 302.413 511.234 316.611C512.035 317.758 511.943 318.054 512.827 318.107C513.878 302.926 512.547 281.297 513.091 265.589C513.313 259.169 513.38 229.444 512.529 225.123Z"/>
</svg>
