<?xml version="1.0" encoding="UTF-8"?>
<svg id="Warstwa_1" data-name="Warstwa 1" xmlns="http://www.w3.org/2000/svg" viewBox="0 0 2754.75 424.25">
  <defs>
    <style>
      .cls-1 {
        fill: #f4f4f4;
      }
    </style>
  </defs>
  <g>
    <path class="cls-1" d="M145.47,207.9c0,.18.1.36.27.44,1.05.49,4.76.32,5.62.26,7.72-.53,18.53-4.06,25.48-7.49,28.07-13.88,42.48-44.68,32.34-74.99-.04-.12-.03-.24.02-.36l.09-.2c.06-.14.19-.25.34-.28,11.76-2.64,23.53-5.61,35.6-6.5,13.47-.99,27.99.61,40.43,5.99,1.76.76,5.17,1.88,5.68,3.74.71,2.55,1.02,8.15,1.15,10.96,3.09,67.85-46.52,102.65-108.12,110.55,0,0,0,0-.01,0-.55.07-.6.84-.06.97,12.5,2.98,24.35,8.31,35.42,14.74,28.68,16.67,49.94,42.74,70.23,68.38l69.22,89.34c.25.32.02.8-.39.8h-84.13c-.19,0-.37-.11-.45-.29-6.92-15.29-13.97-30.62-22.02-45.35-20.38-37.31-46.73-67.39-88.03-81.53-5.76-1.97-12.08-3.76-18.14-4.32-.29-.03-.54.2-.54.5v39.64c0,.48-.61.68-.9.29l-59.12-82.1c-.12-.17-.12-.41,0-.58l59.12-82.04c.28-.39.9-.19.9.29v39.15Z"/>
    <path class="cls-1" d="M234.48,18.38c-1.23,1.99-3.59,3.56-6.07,3.51-.93-.02-2.7-.81-3.61-.63-.16.03-.3.14-.36.3l-3.43,8.29c-.1.25.01.53.26.64l23.81,10.52c.1.05.22.05.33.03l.49-.13c.13-.04.25-.12.31-.25.65-1.25,3.25-7.44,3.24-7.84,0-1.31-1.15-1.38-1.89-2.17-2.4-2.57-2.61-4.31-1.57-7.64,1.49-4.74,3.83-8.87,9.5-7.7,1.19.25,11.31,5.11,12.27,5.9,5.14,4.26-.36,16.42-6.7,15.8-.69-.07-2.37-.89-3.21-.92-.2,0-.38.11-.46.29l-3.73,8.26c-.11.25,0,.54.25.65l24.18,11.02c.25.11.54,0,.65-.24l3.91-8.3c.05-.11.06-.24.03-.35l-.03-.11c-.04-.13-.13-.24-.26-.3-5.71-2.85-4.36-8.52-1.74-13.25,1.66-3,4.05-4.39,7.55-3.73,1.46.28,9.06,3.88,10.69,4.78,5.05,2.81,4.66,6.55,2.5,11.27-2.27,4.97-5.22,6.8-10.46,4.9-.25-.09-.53.03-.63.28l-3.39,8.34c-.1.24,0,.51.23.63,5.84,2.97,12.01,5.62,16.78,10.26,9.98,9.69,15.59,30.66,9.91,43.56-4.83,10.98-13.44,2.94-20.79-.38-22.53-10.18-42.36-9.1-66.24-5.23-5.7.93-17.44,4.24-22.56,3.19s-9.86-11.22-13.04-15.22c-12.8-16.11-36.17-27.65-56.68-28.77-37.9-2.07-71.45,18.43-88.48,51.8l-5.61,12.33c-.23.52-1.01.3-.94-.27,2.87-23.41,12.33-47.12,26.43-65.86,30.69-40.77,78.5-50.94,127.44-46.75,6.63.57,12.8,5.16,19.1,7.2.23.08.49-.04.6-.26l3.89-8.02c.12-.24.02-.53-.22-.65-5.47-2.95-4.75-7.24-2.35-12.33,1.16-2.45,2.35-4.38,5.3-4.79,3.19-.44,8.67,2.55,11.7,4.05,3.18,1.58,6.03,2.97,5.9,7.16-.05,1.5-1.95,5.75-2.8,7.13Z"/>
    <path class="cls-1" d="M24.14,306.38c8.64,15.07,21.07,28.51,35.43,38.41,42.16,29.05,101.61,29.01,142.09-3.13.35-.23.7-.23,1.09-.12.6.17,7.83,7.6,8.82,8.7,9.59,10.53,17.76,23.02,24.48,35.42,2.01,3.71,4.68,8.41,6.25,12.24.19.46.66,1.27.64,1.84,0,.17-.1.32-.24.4-14.23,8.72-30.13,14.93-46.44,18.57-79.93,17.86-158.59-20.48-186.39-98.23-13.38-37.42-14.08-88.07,3.54-124.32.55-1.13,2.46-3.29,2.04-1-.48,2.67-1.8,5.89-2.45,8.66-8.09,34.46-6.77,71.34,11.13,102.56Z"/>
  </g>
  <g>
    <path class="cls-1" d="M1725.04,384.73h-51.85l-33.07-43.42c-114.32,26.22-173.33-112.7-114.85-198.79,72.49-106.72,218.7-23.86,193.47,107.82-5.7,29.77-20.79,51.3-40.76,73.18l47.06,61.21ZM1600.89,139.92c-74.08,10.73-72.92,155.78,6.83,161.19,94.67,6.42,95.19-175.97-6.83-161.19Z"/>
    <path class="cls-1" d="M557.97,99.48c7.37.75,21.32,4.9,28.16,8.21,54.73,26.5,50.33,118.63-9.1,136.28l49.16,98.97h-48.21l-46.68-94.18-21.54-.3v94.48h-41.84V99.48c28.85,2.13,61.69-2.87,90.05,0ZM509.76,212.13h42.75c1.39,0,11.14-3.93,13.12-5.07,21.17-12.12,20.29-53.56-2.37-63.81-1.77-.8-11.48-3.8-12.57-3.8h-40.93v72.67Z"/>
    <path class="cls-1" d="M1870.58,99.48v164.43c0,2.03,5.36,15.92,6.9,18.55,15.07,25.69,58.36,25.14,72.86-.67.95-1.69,5.75-13.48,5.75-14.25V102.21l2.73-2.73h40.93v166.24c0,24.87-20.95,56.66-42.45,68.43-59.37,32.53-130.38-7.42-130.38-75.7V99.48h43.66Z"/>
    <path class="cls-1" d="M2496.41,164.89h-47.3c1.74-30.77-47.14-41.43-57.29-12.71-14.73,41.72,49.54,47.08,74.9,61.43,31.84,18.02,39.73,53.03,27.43,86.2-26.89,72.52-153.13,52.76-148.74-27.72h45.48c-.41,45.76,71.05,42.83,63.55-4.43-3.91-24.64-56.18-32.3-76.32-43.69-25.87-14.63-35.64-37.71-32.7-67.24,8.6-86.42,152.31-79.98,150.98,8.16Z"/>
    <polygon class="cls-1" points="2238.07 99.48 2238.07 139.45 2156.21 139.45 2156.21 199.41 2226.25 199.41 2228.98 202.13 2228.98 236.65 2226.25 239.38 2156.21 239.38 2156.21 302.97 2238.07 302.97 2238.07 342.94 2114.36 342.94 2114.36 99.48 2238.07 99.48"/>
    <polygon class="cls-1" points="1026.43 99.48 1026.43 139.45 937.29 139.45 937.29 201.22 1006.42 201.22 1006.42 239.38 940.02 239.38 937.29 242.1 937.29 342.94 895.45 342.94 895.45 99.48 1026.43 99.48"/>
    <polygon class="cls-1" points="1262.94 99.48 1262.94 139.45 1173.8 139.45 1173.8 201.22 1242.93 201.22 1242.93 239.38 1176.52 239.38 1173.8 242.1 1173.8 342.94 1131.95 342.94 1131.95 99.48 1262.94 99.48"/>
    <polygon class="cls-1" points="2754.75 99.48 2754.75 139.45 2698.35 139.45 2698.35 342.94 2656.51 342.94 2656.51 139.45 2601.02 139.45 2598.29 136.73 2598.29 102.21 2601.02 99.48 2754.75 99.48"/>
    <rect class="cls-1" x="737.17" y="99.48" width="41.84" height="243.46"/>
  </g>
</svg>