<?xml version="1.0" standalone="no"?>
<!DOCTYPE svg PUBLIC "-//W3C//DTD SVG 20010904//EN"
 "http://www.w3.org/TR/2001/REC-SVG-20010904/DTD/svg10.dtd">
<svg version="1.0" xmlns="http://www.w3.org/2000/svg"
 width="506.000000pt" height="506.000000pt" viewBox="0 0 506.000000 506.000000"
 preserveAspectRatio="xMidYMid meet">
<metadata>
Created by potrace 1.14, written by Peter Selinger 2001-2017
</metadata>
<g transform="translate(0.000000,506.000000) scale(0.100000,-0.100000)"
fill="#000000" stroke="none">
<path d="M0 2530 l0 -2530 2530 0 2530 0 0 2530 0 2530 -2530 0 -2530 0 0
-2530z m2821 1583 c-12 -20 -14 -14 -5 12 4 9 9 14 11 11 3 -2 0 -13 -6 -23z
m1289 -359 c129 -26 238 -50 242 -53 4 -3 -34 -69 -83 -146 -61 -96 -88 -148
-87 -165 3 -28 3 -28 130 -15 l66 6 9 37 9 37 71 3 72 3 -10 -29 c-5 -16 -9
-33 -7 -38 1 -5 -3 -18 -9 -29 -6 -11 -45 -135 -87 -276 l-76 -257 0 -136 0
-136 -70 0 -70 0 0 153 c0 114 -4 165 -16 200 -9 26 -19 47 -22 46 -4 0 -55
-57 -114 -127 l-107 -127 -1 -72 0 -73 -62 -1 -63 0 -75 -91 -75 -91 -3 47 -3
46 -230 0 -229 0 0 -70 c0 -60 3 -70 18 -71 9 -1 66 -4 125 -8 l108 -6 -136
-222 -135 -221 0 -71 0 -71 141 0 141 0 -28 -32 c-75 -90 -908 -1007 -911
-1004 -2 2 72 156 165 342 194 391 257 522 251 528 -2 2 -62 -2 -134 -10 -206
-23 -198 -35 -98 139 l85 147 68 0 c75 0 72 2 86 -72 l6 -38 99 0 c55 0 99 2
99 5 0 3 -29 118 -65 256 l-64 252 18 36 c11 20 74 132 140 250 67 118 120
215 119 215 -2 1 -50 -1 -108 -4 l-105 -5 -3 -87 -3 -88 -69 0 -70 0 0 143 0
143 -95 303 c-52 167 -95 305 -95 307 0 2 31 4 69 4 l69 0 58 -235 c39 -157
61 -230 66 -218 7 16 108 435 108 448 0 3 32 5 70 5 39 0 70 -1 70 -3 0 -1
-31 -108 -70 -237 -38 -129 -68 -235 -67 -236 1 -1 49 84 106 189 77 143 105
204 109 239 4 38 8 48 25 50 14 2 32 23 52 58 37 67 48 93 35 85 -6 -4 -10 7
-10 24 0 22 4 29 14 25 8 -3 12 -12 9 -20 -14 -36 9 -8 42 54 21 37 51 90 66
118 l29 52 133 -28 c72 -15 238 -49 367 -76z m-3590 -62 c0 -4 -33 -48 -73
-97 l-73 -90 -57 -3 c-31 -2 -57 0 -57 3 0 6 96 162 113 183 10 13 147 18 147
4z m-24 -266 l34 -34 0 -106 0 -106 -70 0 -69 0 -3 88 -3 87 -58 3 c-35 2 -64
-2 -73 -9 -21 -17 -21 -661 0 -678 9 -7 38 -11 73 -9 l58 3 3 88 3 87 69 0 70
0 0 -106 0 -106 -34 -34 -34 -34 -136 0 c-233 0 -220 -24 -224 427 -3 393 0
422 51 453 28 17 51 20 170 20 l139 0 34 -34z m283 -308 c24 -189 46 -356 50
-371 4 -18 25 101 61 343 l54 370 77 0 77 0 12 -82 c52 -362 98 -650 103 -638
3 8 24 159 47 335 22 176 44 335 47 353 l5 32 70 0 c68 0 70 -1 65 -22 -3 -13
-36 -215 -73 -450 l-68 -428 -92 0 c-80 0 -93 2 -98 18 -2 9 -24 151 -48 315
-24 168 -46 290 -50 280 -4 -10 -26 -152 -49 -315 l-43 -298 -93 0 c-51 0 -93
1 -94 3 0 1 -33 203 -73 450 l-72 447 71 0 71 0 43 -342z m901 -108 l0 -450
-70 0 -70 0 0 450 0 450 70 0 70 0 0 -450z m527 430 c40 -24 53 -67 53 -177
l0 -83 -70 0 -70 0 0 79 c0 96 -7 103 -87 99 l-58 -3 0 -345 0 -345 58 -3 c80
-4 87 3 87 99 l0 79 70 0 70 0 0 -82 c0 -180 -21 -198 -224 -198 l-138 0 -34
34 -34 34 0 382 0 382 34 34 34 34 139 0 c119 0 142 -3 170 -20z m543 -29 c0
-41 -23 -103 -139 -373 -76 -177 -141 -333 -145 -345 l-7 -23 140 0 141 0 0
-55 0 -55 -215 0 -215 0 0 49 c0 40 25 108 148 397 l149 349 -139 3 -138 3 0
49 0 50 210 0 210 0 0 -49z m998 -1341 c3 -32 -5 -45 -70 -118 l-73 -82 -102
0 c-57 0 -103 2 -103 5 0 2 32 56 71 120 l71 116 102 -3 101 -3 3 -35z m-838
-81 c0 -5 -7 -9 -15 -9 -9 0 -12 6 -9 15 6 15 24 11 24 -6z m-963 -27 c-2 -4
-7 -15 -11 -26 -5 -15 -9 -16 -21 -6 -20 17 -19 38 3 43 20 4 34 -1 29 -11z
m-66 -69 c-10 -17 -10 -16 -11 3 0 23 13 41 18 25 2 -6 -1 -18 -7 -28z m-214
-1005 c-3 -8 -6 -5 -6 6 -1 11 2 17 5 13 3 -3 4 -12 1 -19z m1003 -178 c0 -5
-4 -10 -10 -10 -5 0 -10 5 -10 10 0 6 5 10 10 10 6 0 10 -4 10 -10z m-805
-379 c-3 -6 -16 -11 -28 -11 -21 1 -21 1 3 15 27 14 36 13 25 -4z m35 -10 c0
-6 -4 -13 -10 -16 -5 -3 -10 1 -10 9 0 9 5 16 10 16 6 0 10 -4 10 -9z"/>
<path d="M4286 3101 c-26 -27 -27 -30 -15 -72 l12 -44 18 70 c10 38 17 71 15
72 -1 2 -15 -10 -30 -26z"/>
</g>
</svg>
